<?xml version="1.0" standalone="no"?>
<!DOCTYPE svg PUBLIC "-//W3C//DTD SVG 20010904//EN"
 "http://www.w3.org/TR/2001/REC-SVG-20010904/DTD/svg10.dtd">
<svg version="1.0" xmlns="http://www.w3.org/2000/svg"
 width="1000.000000pt" height="1000.000000pt" viewBox="0 0 1000.000000 1000.000000"
 preserveAspectRatio="xMidYMid meet">
<metadata>
Created by potrace 1.11, written by Peter Selinger 2001-2013
</metadata>
<g transform="translate(0.000000,1000.000000) scale(0.100000,-0.100000)"
fill="#000000" stroke="none">
<path d="M3903 9973 c-14 -48 -9 -500 6 -615 l14 -107 -24 -20 c-15 -12 -45
-20 -86 -24 -46 -3 -78 -14 -127 -41 -53 -30 -88 -40 -188 -57 -68 -11 -134
-26 -148 -33 -14 -7 -54 -21 -90 -31 -36 -9 -121 -42 -190 -72 -69 -30 -164
-70 -211 -88 -228 -88 -374 -184 -564 -369 -60 -60 -150 -144 -200 -189 -201
-180 -310 -286 -360 -352 -30 -38 -65 -83 -79 -99 -14 -16 -26 -32 -26 -35 0
-3 -14 -22 -31 -41 -17 -19 -35 -47 -41 -62 -5 -16 -14 -28 -19 -28 -5 0 -9
-4 -9 -10 0 -5 -11 -22 -24 -37 -115 -130 -155 -179 -204 -253 -31 -46 -60
-89 -65 -95 -24 -32 -57 -87 -57 -95 0 -5 -6 -15 -13 -22 -7 -7 -25 -33 -40
-58 -27 -43 -64 -98 -90 -131 -28 -35 -57 -79 -57 -84 0 -9 -99 -257 -110
-277 -6 -10 -10 -32 -10 -50 0 -38 -27 -126 -81 -263 -44 -110 -70 -189 -94
-278 l-16 -58 -85 79 c-132 124 -196 124 -260 0 -9 -16 -18 -69 -21 -117 -7
-105 9 -167 66 -261 l39 -65 -24 -5 c-13 -3 -44 -22 -69 -43 -52 -44 -105
-148 -105 -206 0 -55 42 -134 87 -166 l39 -29 -21 -40 c-49 -95 -79 -288 -56
-359 15 -44 67 -74 146 -83 41 -5 60 -2 96 16 24 12 52 30 63 39 18 16 19 11
12 -200 -7 -192 -6 -217 8 -222 9 -4 16 -15 16 -25 0 -10 9 -54 20 -98 12 -43
25 -115 31 -159 13 -107 29 -181 50 -231 9 -23 25 -79 34 -125 9 -46 20 -88
25 -94 4 -5 15 -32 25 -60 10 -27 21 -54 25 -60 4 -5 15 -32 25 -60 19 -55 29
-78 73 -175 16 -36 33 -76 37 -90 4 -14 21 -50 38 -80 53 -97 144 -284 156
-322 7 -20 19 -42 27 -48 7 -7 14 -17 14 -23 0 -5 10 -24 23 -41 13 -17 31
-49 41 -71 10 -22 31 -67 46 -100 53 -116 60 -134 67 -167 3 -18 20 -50 38
-70 17 -20 42 -67 55 -105 13 -37 33 -86 46 -108 12 -22 25 -55 29 -73 3 -18
16 -37 27 -43 15 -8 17 -14 9 -22 -6 -6 -11 -21 -11 -34 0 -44 -98 -404 -132
-483 -25 -57 -97 -142 -156 -182 -79 -53 -165 -138 -210 -207 -24 -36 -48 -67
-53 -69 -5 -2 -9 -8 -9 -14 0 -6 -14 -24 -30 -40 -16 -15 -30 -32 -30 -38 0
-5 -10 -20 -22 -34 -37 -40 -48 -55 -48 -66 0 -5 -4 -10 -10 -10 -5 0 -10 -6
-10 -13 0 -8 -11 -26 -23 -41 -13 -15 -31 -52 -41 -82 -9 -30 -21 -54 -27 -54
-5 0 -9 -7 -9 -15 0 -8 -4 -15 -10 -15 -5 0 -10 -4 -10 -9 0 -14 -45 -61 -58
-61 -15 0 -75 -72 -98 -117 -10 -21 -36 -60 -58 -86 -21 -26 -46 -62 -55 -80
-9 -18 -24 -43 -33 -57 -9 -14 -20 -37 -23 -52 -7 -27 -6 -28 33 -28 36 0 45
5 68 38 15 20 49 60 75 87 72 77 158 194 191 260 17 33 40 74 53 90 12 17 26
41 30 55 11 39 38 94 52 108 7 7 13 20 13 28 0 8 5 14 10 14 6 0 10 5 10 10 0
6 8 18 18 28 28 30 52 62 52 69 0 3 14 19 30 35 17 15 30 35 30 42 0 8 4 16 8
18 5 1 27 30 49 63 44 65 88 108 173 172 73 54 152 138 177 188 33 64 143 455
143 506 0 12 10 29 23 39 24 20 23 16 29 277 2 61 5 113 8 115 3 2 14 8 25 14
30 16 45 55 51 131 2 37 16 113 29 168 14 55 25 124 25 153 0 29 4 51 9 48 7
-5 20 88 24 167 0 15 3 27 7 27 7 0 35 120 32 137 -2 7 8 62 22 123 14 61 23
117 20 125 -3 7 2 41 10 75 10 37 16 104 16 165 0 61 8 141 19 196 10 52 22
121 25 154 3 33 13 98 21 145 8 47 23 163 35 258 11 95 26 198 34 230 8 31 19
77 24 102 13 63 65 228 85 270 9 19 26 60 37 90 41 105 229 475 267 525 21 28
56 78 76 112 65 106 150 165 337 234 47 17 121 44 165 60 121 44 199 35 249
-28 31 -40 277 -243 326 -269 25 -13 77 -43 116 -67 201 -120 271 -166 322
-209 30 -26 96 -76 146 -110 50 -34 126 -93 168 -130 42 -38 84 -68 93 -68 21
0 212 92 278 134 28 18 77 46 107 61 30 15 105 65 165 110 61 45 135 95 165
110 29 15 70 38 90 51 19 13 54 30 78 38 23 8 62 29 87 46 25 17 64 38 87 46
24 8 59 27 78 43 19 15 82 56 140 91 90 54 115 64 174 71 60 8 84 5 165 -15
53 -14 141 -34 196 -47 114 -24 219 -62 353 -125 50 -24 96 -44 100 -44 5 0
23 -11 42 -25 19 -14 41 -25 49 -25 9 0 36 -13 61 -29 33 -21 53 -44 74 -87
17 -33 53 -95 80 -139 28 -44 56 -89 63 -100 20 -33 73 -144 73 -153 0 -20 55
-141 85 -187 39 -59 82 -159 118 -270 96 -302 96 -300 108 -600 5 -132 12
-301 15 -375 7 -165 -12 -690 -26 -704 -6 -6 -10 -97 -10 -225 -1 -215 -4
-250 -51 -486 -6 -27 -14 -86 -19 -130 -4 -44 -15 -123 -23 -175 -8 -52 -18
-139 -21 -192 l-6 -98 25 0 c14 0 55 13 90 30 35 16 69 30 76 30 6 0 31 13 55
30 42 28 147 80 161 80 4 0 16 8 27 19 12 10 43 31 70 46 l49 29 -7 -127 c-5
-80 -3 -155 4 -204 28 -194 44 -272 70 -328 15 -33 38 -91 50 -130 12 -38 26
-74 30 -80 4 -5 30 -76 58 -156 l50 -145 -29 4 c-25 4 -29 1 -29 -19 0 -14 13
-34 30 -49 119 -99 163 -150 248 -290 42 -69 109 -135 212 -210 34 -25 78 -59
98 -75 81 -67 134 -95 183 -95 34 0 39 3 39 23 0 13 -10 32 -22 43 -32 27 -86
64 -94 64 -4 0 -23 15 -44 33 -67 58 -157 127 -167 127 -19 0 -93 89 -162 195
-40 61 -90 127 -112 147 -21 20 -39 42 -39 48 0 7 -6 26 -14 43 -8 18 -29 77
-46 132 -18 55 -44 129 -58 165 -13 36 -39 107 -57 157 -18 51 -37 98 -42 105
-25 33 -39 97 -78 355 -19 131 -19 163 0 163 19 0 19 24 0 85 -8 27 -13 50
-12 51 1 1 13 7 26 14 37 19 171 121 221 169 56 53 226 191 235 191 36 0 335
305 335 341 0 5 20 37 43 72 68 96 146 240 177 325 11 31 27 71 35 87 32 71
85 219 100 280 10 38 27 77 41 92 14 15 27 38 31 52 3 14 13 36 20 48 31 48
92 290 102 405 5 57 16 155 25 218 8 63 19 208 25 322 5 114 14 214 18 223 8
13 17 4 47 -45 21 -34 81 -107 134 -161 88 -92 97 -99 134 -99 112 0 167 108
154 298 -6 88 -9 96 -58 180 -28 48 -58 94 -65 103 -12 14 -12 17 2 23 9 3 23
6 32 6 8 0 38 16 67 35 41 27 55 44 64 74 31 103 -3 297 -66 373 -8 10 -36 20
-68 24 l-53 6 16 37 c69 157 81 215 66 305 -7 45 -68 110 -119 126 -93 31
-292 -40 -358 -126 -20 -26 -36 -52 -36 -58 -1 -6 -13 25 -29 69 -15 44 -33
93 -39 108 -7 16 -12 35 -12 43 0 16 -25 81 -70 179 -15 33 -35 96 -45 140
-10 44 -26 89 -36 101 -11 11 -19 26 -19 32 0 7 -4 20 -9 30 -32 60 -73 159
-96 232 -44 140 -57 174 -77 199 -10 13 -18 27 -18 31 0 4 -20 38 -45 76 -25
38 -49 80 -52 94 -5 22 -37 75 -53 90 -3 3 -17 21 -30 40 -13 19 -29 40 -35
46 -5 7 -19 24 -29 39 -11 14 -28 36 -38 47 -10 12 -34 49 -53 83 -19 34 -54
84 -77 111 -24 27 -47 56 -53 65 -136 211 -191 263 -365 344 -36 17 -91 47
-124 68 -32 21 -72 46 -90 55 -78 43 -209 138 -291 212 -67 61 -113 93 -182
126 -51 24 -95 44 -99 44 -13 0 -108 86 -124 112 -21 35 -136 136 -172 152
l-26 11 39 105 c38 103 47 145 69 322 6 47 17 105 25 128 8 23 17 68 20 99 3
32 17 93 31 137 27 86 41 231 30 307 l-7 47 -1604 0 -1605 0 -7 -27z m32 -844
c6 -19 -2 -109 -10 -109 -1 0 -36 15 -76 34 -41 18 -85 38 -99 43 l-25 10 35
16 c54 24 61 25 117 26 44 1 53 -2 58 -20z m2005 -74 c36 -7 99 -16 140 -20
76 -6 189 -29 225 -45 11 -4 52 -18 90 -30 121 -39 178 -60 253 -96 40 -19 77
-34 83 -34 6 0 46 -25 90 -55 59 -41 88 -55 114 -55 37 0 46 -8 157 -127 45
-49 146 -123 167 -123 25 0 112 -57 180 -118 75 -67 197 -162 208 -162 3 0 22
-12 42 -27 20 -16 52 -36 71 -46 19 -9 55 -30 80 -46 25 -16 91 -52 147 -80
135 -68 189 -116 271 -237 37 -56 88 -125 113 -155 25 -30 49 -61 52 -69 11
-25 28 -50 131 -185 54 -71 109 -151 122 -177 13 -25 55 -102 94 -169 38 -67
70 -130 70 -138 0 -29 68 -217 103 -286 11 -22 28 -67 37 -100 13 -46 22 -61
37 -63 21 -3 33 -41 33 -105 0 -15 5 -35 10 -45 18 -30 80 -200 80 -219 1 -10
9 -36 20 -58 11 -22 19 -47 20 -56 0 -8 4 -19 9 -25 5 -5 16 -38 25 -74 9 -36
27 -101 41 -145 32 -107 63 -251 75 -355 14 -122 12 -366 -4 -505 -8 -66 -20
-217 -26 -335 -6 -118 -17 -249 -25 -290 -8 -41 -20 -129 -25 -195 -14 -163
-30 -219 -104 -365 -35 -69 -69 -150 -76 -180 -14 -62 -44 -145 -87 -240 -16
-36 -35 -81 -42 -100 -32 -85 -117 -245 -184 -346 -26 -39 -47 -75 -47 -80 0
-27 -229 -258 -298 -301 -55 -35 -150 -111 -250 -200 -103 -93 -244 -193 -315
-225 -22 -10 -58 -30 -80 -46 -41 -27 -130 -72 -143 -72 -4 0 -21 -10 -38 -23
-34 -25 -106 -61 -111 -55 -4 4 1 15 73 168 56 121 57 123 76 200 32 126 37
144 47 156 8 10 27 85 59 239 4 22 11 83 15 135 6 84 25 165 45 195 4 6 20 50
35 99 l28 88 -7 307 c-4 168 -12 371 -17 451 -5 80 -14 237 -18 350 -10 216
-12 228 -116 615 -23 86 -45 205 -45 242 0 17 -4 34 -9 37 -4 3 -11 23 -15 43
-3 21 -22 58 -41 82 -26 33 -35 53 -35 82 0 21 -7 44 -15 53 -8 8 -15 18 -15
23 0 35 -136 318 -175 365 -18 21 -40 55 -51 75 -10 21 -36 59 -58 86 -47 59
-86 115 -86 126 0 4 -22 37 -49 73 -27 36 -50 70 -52 76 -16 45 -194 234 -240
254 -16 7 -29 16 -29 20 0 8 -134 107 -180 132 -19 11 -38 25 -43 32 -4 7 -23
18 -42 24 -19 6 -33 15 -30 19 6 10 179 126 265 177 151 90 170 120 170 264 0
64 -5 102 -16 126 -22 45 -87 102 -160 139 -33 17 -82 45 -111 63 -29 17 -59
32 -67 32 -8 0 -18 4 -21 10 -3 5 -32 22 -63 37 -31 14 -69 34 -84 45 -29 20
-89 44 -156 62 l-42 12 36 59 c20 33 42 76 49 95 7 19 27 65 44 101 30 65 31
69 31 215 0 95 -5 168 -14 199 -7 28 -23 86 -35 130 -12 44 -33 103 -45 131
-31 67 -210 304 -231 304 -4 0 -21 10 -38 22 -18 13 -79 47 -136 76 l-105 53
-150 14 c-83 8 -160 15 -171 16 -20 0 22 13 140 44 143 36 229 39 365 10z
m-2246 -19 c118 -39 223 -99 300 -171 6 -6 49 -39 96 -74 106 -78 174 -142
206 -193 14 -22 24 -41 22 -42 -2 -2 -32 -9 -68 -16 -36 -6 -112 -25 -170 -40
-58 -16 -132 -33 -165 -40 -33 -6 -121 -31 -195 -55 -74 -24 -175 -53 -225
-64 -49 -12 -137 -34 -195 -50 -58 -16 -136 -37 -175 -46 -38 -10 -119 -35
-180 -57 -60 -21 -116 -38 -125 -38 -8 -1 -32 -7 -54 -15 l-38 -13 4 126 c4
118 7 134 42 221 54 137 116 237 188 307 129 125 219 178 347 205 30 6 70 18
90 26 44 19 169 52 198 52 12 1 56 -10 97 -23z m434 -75 c57 -18 121 -32 208
-44 17 -3 43 -12 56 -21 14 -9 38 -16 54 -15 16 1 70 -5 119 -14 160 -28 196
-30 294 -13 52 9 95 15 97 13 2 -2 -24 -21 -57 -42 -86 -55 -231 -216 -270
-302 -18 -38 -36 -76 -41 -86 -37 -75 -68 -184 -68 -243 0 -36 -4 -64 -10 -64
-6 0 -10 31 -10 74 0 72 -30 198 -50 211 -5 3 -14 31 -21 63 -14 69 -82 203
-124 245 -16 16 -74 62 -127 103 -143 106 -188 146 -188 164 0 28 12 31 44 11
17 -11 59 -28 94 -40z m1483 -51 c98 -9 128 -16 169 -38 8 -5 50 -26 94 -48
88 -44 146 -96 237 -216 75 -99 108 -168 153 -326 31 -106 36 -139 36 -227 0
-62 -4 -106 -11 -110 -10 -7 -74 19 -83 33 -3 5 -31 17 -63 27 -32 10 -81 29
-109 41 -51 23 -253 92 -394 134 -41 12 -129 49 -195 80 -66 32 -161 72 -210
89 -113 38 -360 138 -441 178 l-62 30 32 35 c137 157 135 155 300 246 89 49
307 95 406 86 19 -2 83 -8 141 -14z m-2712 -109 c-49 -41 -111 -139 -163 -258
-57 -129 -66 -176 -66 -349 0 -135 2 -153 31 -242 17 -53 42 -123 57 -155 30
-67 28 -71 -51 -81 -27 -4 -75 -16 -106 -26 -31 -10 -76 -22 -101 -25 -25 -4
-76 -16 -115 -27 -67 -19 -74 -25 -169 -121 -141 -146 -156 -171 -156 -271 0
-76 3 -84 33 -122 91 -118 340 -377 412 -429 22 -16 65 -47 95 -69 64 -46 120
-97 120 -107 0 -4 -10 -11 -22 -14 -48 -15 -178 -84 -269 -143 -97 -63 -299
-255 -355 -337 -71 -105 -127 -245 -173 -430 -17 -71 -41 -164 -52 -205 -11
-41 -33 -125 -49 -186 -16 -61 -33 -120 -38 -130 -29 -56 -109 -308 -148 -470
-25 -101 -26 -118 -19 -244 4 -74 9 -408 11 -743 3 -523 2 -620 -12 -700 -11
-65 -17 -178 -20 -387 -4 -327 -11 -451 -25 -429 -9 14 -25 67 -54 171 -15 56
-44 116 -72 149 -16 20 -93 176 -93 191 0 9 -44 82 -91 150 -11 15 -19 33 -19
40 -1 7 -20 51 -44 98 -41 78 -137 273 -172 345 -28 58 -94 219 -94 227 0 5
-9 30 -21 56 -11 26 -24 56 -29 67 -4 11 -15 36 -24 57 -9 20 -16 43 -16 52 0
18 -44 154 -58 182 -18 35 -41 128 -47 194 -4 36 -19 112 -33 170 -26 104 -26
109 -23 413 2 191 -2 358 -9 440 -13 138 -9 180 35 412 8 44 19 154 25 245 6
113 16 188 30 235 11 39 27 95 36 125 9 30 33 96 54 145 21 50 55 144 74 210
74 251 144 416 224 529 32 44 76 109 97 144 107 170 199 303 252 363 91 103
123 143 123 157 0 6 5 12 10 12 6 0 15 10 20 23 13 29 30 54 58 85 12 14 22
31 22 38 0 8 4 14 10 14 5 0 34 33 63 73 56 74 170 188 312 312 77 68 119 107
290 273 132 128 274 223 445 298 93 41 115 43 69 5z m1811 -308 c0 -5 15 -16
33 -27 38 -22 297 -129 382 -158 120 -40 215 -80 215 -89 0 -6 -7 -24 -16 -41
-12 -22 -15 -50 -12 -98 3 -57 8 -73 33 -103 17 -19 36 -36 42 -36 7 -1 41
-14 75 -31 86 -42 170 -37 224 11 11 11 24 19 28 19 24 0 66 44 72 75 3 19 10
35 15 35 25 0 224 -85 329 -140 19 -11 54 -28 78 -40 23 -11 42 -22 42 -24 0
-6 -58 -126 -79 -164 -120 -214 -229 -313 -438 -400 -149 -62 -169 -66 -288
-67 -92 0 -121 4 -175 24 -98 36 -248 108 -308 148 -61 40 -143 135 -193 223
-19 34 -40 68 -48 76 -59 64 -95 167 -85 244 4 34 -1 61 -19 110 -37 99 -42
156 -19 222 51 144 112 270 112 231z m-334 -113 c12 -58 29 -132 38 -165 9
-32 16 -88 16 -123 0 -54 -6 -76 -34 -132 -19 -36 -48 -102 -66 -146 -23 -60
-47 -97 -92 -148 -108 -118 -194 -174 -418 -271 -124 -54 -141 -59 -205 -58
-83 1 -240 40 -315 78 -30 15 -84 50 -120 79 -73 57 -143 105 -180 124 -74 38
-167 172 -220 317 -10 28 -21 57 -25 66 -4 12 1 18 18 23 14 3 56 23 93 44 69
39 175 85 225 97 25 6 27 4 34 -37 10 -57 29 -95 73 -140 l36 -38 87 0 c105 0
125 7 173 57 52 55 67 93 73 194 6 86 7 90 32 95 65 15 131 35 192 58 36 13
101 32 144 41 43 9 126 29 184 44 140 38 192 49 216 47 17 -1 23 -16 41 -106z
m-956 -186 c0 -27 -34 -75 -56 -80 -26 -7 -84 21 -84 39 0 17 21 43 40 50 8 3
34 6 58 6 32 1 42 -3 42 -15z m2193 -84 c42 0 3 -46 -48 -56 -46 -8 -55 0 -55
51 l0 44 43 -19 c23 -11 50 -20 60 -20z m-1058 -116 c8 -20 15 -62 15 -93 0
-105 25 -163 172 -399 55 -89 161 -180 274 -236 180 -89 244 -108 374 -114
176 -7 269 13 460 100 105 48 258 177 295 249 l15 29 53 -20 c69 -27 97 -39
127 -55 14 -8 48 -26 75 -41 28 -14 59 -35 70 -45 12 -10 43 -31 70 -45 48
-26 64 -34 169 -93 74 -41 108 -88 114 -157 7 -89 -15 -123 -123 -191 -49 -30
-139 -88 -200 -128 -129 -86 -202 -125 -230 -125 -12 0 -25 -4 -31 -9 -5 -4
-43 -21 -84 -36 -41 -16 -104 -43 -140 -62 -35 -18 -68 -33 -72 -33 -4 0 -38
-14 -75 -31 -38 -17 -103 -44 -146 -60 -43 -16 -110 -44 -150 -63 -75 -35
-118 -54 -177 -76 -19 -8 -48 -22 -65 -31 -16 -10 -70 -38 -120 -63 -133 -68
-191 -101 -234 -135 -22 -17 -42 -31 -46 -31 -5 0 -22 -11 -39 -24 -17 -13
-42 -27 -55 -31 -13 -4 -45 -19 -70 -34 -25 -15 -77 -42 -116 -59 -38 -18 -77
-37 -85 -42 -25 -16 -71 -37 -140 -65 -61 -26 -93 -40 -224 -100 -30 -14 -59
-25 -64 -25 -15 0 -26 154 -26 370 0 219 6 270 71 555 14 61 27 148 29 195 5
82 30 244 60 380 35 164 77 306 145 495 23 63 38 114 69 230 10 39 24 87 30
109 6 21 9 47 7 57 -8 31 2 21 18 -17z m-154 -251 c-7 -26 -19 -61 -27 -78
-37 -81 -117 -349 -148 -500 -39 -189 -56 -296 -56 -355 0 -36 -9 -103 -20
-150 -11 -47 -27 -125 -35 -175 -8 -49 -18 -97 -21 -105 -4 -8 -10 -40 -14
-70 -29 -213 -30 -234 -20 -407 5 -98 10 -192 10 -210 l0 -31 -50 24 c-27 13
-53 24 -56 24 -3 0 -28 17 -54 38 -27 20 -75 55 -106 77 -32 22 -82 60 -111
85 -29 25 -78 65 -109 90 -31 25 -73 62 -93 84 -20 21 -45 42 -56 47 -33 15
-68 40 -181 130 -94 74 -137 104 -249 177 -11 7 -43 24 -72 38 -28 13 -57 31
-63 39 -7 8 -18 15 -24 15 -6 0 -30 22 -54 50 -41 47 -160 143 -212 170 -58
30 -234 195 -299 280 -19 25 -54 65 -78 90 -112 116 -110 146 15 290 116 134
180 173 322 194 25 4 65 14 90 22 25 8 79 21 120 28 l74 14 57 -59 c31 -32 64
-59 72 -59 13 0 113 -62 127 -79 22 -26 107 -84 165 -113 131 -66 345 -103
465 -80 30 6 93 28 140 50 47 21 101 45 120 52 158 62 360 241 410 364 27 67
38 66 21 -1z m-3873 -1728 c49 -47 99 -85 109 -85 18 0 19 -7 16 -87 -2 -49
-8 -128 -14 -178 -9 -83 -17 -130 -51 -305 -7 -38 -12 -150 -13 -270 l0 -205
-40 -36 c-22 -20 -50 -41 -62 -48 -48 -25 -128 -4 -138 37 -8 31 12 144 38
221 22 63 24 66 72 83 112 40 99 108 -21 108 -75 0 -134 60 -134 137 0 38 45
117 84 146 37 29 68 33 112 16 79 -29 103 34 34 90 -42 34 -101 118 -130 186
-26 60 -32 108 -20 159 10 44 48 116 61 116 4 0 47 -38 97 -85z m9169 -67 c17
-16 33 -44 36 -62 6 -37 -30 -142 -89 -259 -8 -16 -14 -33 -14 -39 0 -6 -16
-33 -36 -60 -26 -37 -34 -58 -32 -81 3 -28 7 -32 35 -35 28 -3 36 2 60 36 37
52 57 64 96 57 26 -5 36 -15 54 -53 53 -114 50 -222 -8 -263 -32 -23 -166 -59
-219 -59 -43 0 -60 -14 -60 -52 0 -30 27 -47 73 -48 36 -1 89 -33 108 -65 9
-16 32 -56 51 -87 40 -66 53 -131 39 -204 -24 -124 -44 -135 -118 -62 -86 84
-162 185 -193 255 -5 12 -21 25 -35 29 l-25 6 0 198 c0 200 -8 292 -37 430 -8
41 -19 94 -24 118 -5 24 -11 48 -15 54 -3 5 -12 32 -19 59 -12 44 -12 49 4 49
9 0 30 24 50 56 28 47 43 60 90 81 114 52 175 52 228 1z m-8020 -3540 c-3 -7
-5 -2 -5 12 0 14 2 19 5 13 2 -7 2 -19 0 -25z"/>
<path d="M4573 7155 c-7 -8 -13 -18 -13 -23 0 -5 -25 -50 -55 -100 -60 -100
-68 -136 -32 -146 55 -15 60 -10 105 95 50 115 59 183 27 186 -11 2 -26 -4
-32 -12z"/>
<path d="M3939 7173 c-14 -37 -2 -191 17 -220 15 -24 56 -31 83 -14 19 12 7
142 -14 154 -8 4 -17 30 -21 57 -6 44 -9 50 -31 50 -16 0 -27 -8 -34 -27z"/>
<path d="M3104 5061 c-42 -11 -47 -14 -79 -61 -26 -38 -29 -51 -33 -149 -3
-74 -1 -111 7 -115 6 -4 11 -15 11 -25 0 -20 36 -55 100 -97 43 -28 50 -29
157 -29 109 0 112 1 141 28 46 44 55 88 50 228 -6 143 -18 182 -60 203 -35 18
-245 30 -294 17z m170 -107 c22 -21 20 -43 -5 -70 -26 -28 -57 -21 -61 15 -8
59 31 91 66 55z"/>
<path d="M5894 4846 c-64 -14 -114 -55 -125 -104 -5 -20 -9 -81 -9 -135 0 -94
1 -100 30 -135 28 -35 56 -53 140 -89 19 -8 43 -19 52 -24 29 -15 101 -9 133
12 17 10 39 23 50 28 11 5 41 31 68 59 42 45 47 56 47 96 0 42 -19 102 -55
183 -8 17 -15 35 -15 40 0 19 -56 62 -95 72 -50 14 -154 12 -221 -3z m72 -151
c14 -21 15 -31 6 -50 -14 -31 -38 -32 -69 -3 -27 26 -28 35 -6 60 23 25 50 22
69 -7z"/>
<path d="M3963 3848 c-49 -11 -99 -61 -139 -140 -15 -29 -53 -80 -84 -113 -90
-94 -119 -174 -120 -325 0 -110 7 -133 81 -255 83 -136 138 -166 343 -185 159
-15 153 -12 161 -75 4 -32 2 -62 -4 -74 -6 -11 -11 -29 -11 -41 0 -11 -7 -32
-16 -45 -15 -23 -23 -25 -88 -25 -39 0 -107 -7 -151 -15 -103 -19 -213 -19
-245 0 -14 8 -41 14 -61 15 -34 0 -39 -4 -63 -50 -35 -66 -37 -163 -5 -180 25
-14 132 -9 269 12 244 36 347 31 720 -37 130 -24 245 -68 317 -121 17 -13 38
-24 45 -24 21 0 82 -48 90 -70 9 -25 47 -40 102 -40 83 0 112 76 58 154 -24
35 -69 66 -177 121 -16 9 -43 24 -60 35 -55 36 -130 69 -206 89 -41 12 -105
30 -144 41 -38 11 -124 29 -190 41 -113 20 -149 29 -112 29 23 0 41 64 42 153
0 73 1 78 20 72 11 -4 73 -9 137 -12 l117 -5 73 37 c182 92 240 161 243 287 1
37 4 71 8 74 4 4 7 61 7 127 l0 119 -49 54 c-27 30 -55 71 -62 91 -15 49 -63
119 -94 139 -14 9 -34 31 -45 49 -17 27 -33 37 -93 55 -39 13 -103 27 -142 32
-96 14 -420 18 -472 6z m287 -78 c85 -6 171 -16 190 -24 19 -7 62 -21 95 -31
79 -23 125 -51 169 -103 39 -48 41 -53 25 -69 -9 -9 -106 24 -185 65 -86 44
-111 52 -157 52 -28 0 -77 5 -109 12 -45 9 -76 9 -145 -1 -49 -7 -110 -15
-138 -18 -27 -3 -54 -9 -59 -13 -10 -10 -36 -2 -36 12 0 6 18 33 41 62 43 54
88 78 129 70 14 -3 95 -9 180 -14z"/>
</g>
</svg>
